<svg width="32" height="32" viewBox="0 0 32 32" fill="none" xmlns="http://www.w3.org/2000/svg">
<g clip-path="url(#clip0_59_75)">
<path d="M15.7731 32C15.5976 32.001 15.4236 31.9673 15.2612 31.901C15.0987 31.8346 14.951 31.7369 14.8264 31.6133C14.7014 31.4893 14.6022 31.3419 14.5345 31.1794C14.4669 31.0169 14.432 30.8426 14.432 30.6666C14.432 30.4906 14.4669 30.3163 14.5345 30.1539C14.6022 29.9914 14.7014 29.8439 14.8264 29.72L25.7197 18.8266C26.4688 18.0766 26.8896 17.06 26.8896 16C26.8896 14.94 26.4688 13.9233 25.7197 13.1733L14.8264 2.27996C14.7021 2.15564 14.6035 2.00806 14.5362 1.84563C14.4689 1.6832 14.4343 1.50911 14.4343 1.3333C14.4343 0.978227 14.5753 0.637701 14.8264 0.386629C15.0775 0.135557 15.418 -0.00549316 15.7731 -0.00549316C16.1281 -0.00549316 16.4687 0.135557 16.7197 0.386629L27.6131 11.28C28.2339 11.8992 28.7265 12.6349 29.0626 13.4448C29.3987 14.2548 29.5717 15.1231 29.5717 16C29.5717 16.8769 29.3987 17.7451 29.0626 18.5551C28.7265 19.365 28.2339 20.1007 27.6131 20.72L16.7197 31.6133C16.5952 31.7369 16.4474 31.8346 16.2849 31.901C16.1225 31.9673 15.9485 32.001 15.7731 32Z" fill="#EAECED"/>
<path d="M2.43994 32C2.26447 32.001 2.09052 31.9673 1.92807 31.901C1.76562 31.8346 1.61786 31.7369 1.49327 31.6133C1.3683 31.4893 1.26911 31.3419 1.20142 31.1794C1.13373 31.0169 1.09888 30.8426 1.09888 30.6666C1.09888 30.4906 1.13373 30.3163 1.20142 30.1539C1.26911 29.9914 1.3683 29.8439 1.49327 29.72L14.2799 16.9466C14.4049 16.8227 14.5041 16.6752 14.5718 16.5127C14.6395 16.3503 14.6743 16.176 14.6743 16C14.6743 15.8239 14.6395 15.6497 14.5718 15.4872C14.5041 15.3247 14.4049 15.1772 14.2799 15.0533L1.49327 2.27996C1.2422 2.02889 1.10115 1.68836 1.10115 1.3333C1.10115 0.978227 1.2422 0.637701 1.49327 0.386629C1.74435 0.135557 2.08487 -0.00549316 2.43994 -0.00549316C2.79501 -0.00549316 3.13554 0.135557 3.38661 0.386629L16.1599 13.1733C16.909 13.9233 17.3298 14.94 17.3298 16C17.3298 17.06 16.909 18.0766 16.1599 18.8266L3.38661 31.6133C3.26202 31.7369 3.11427 31.8346 2.95182 31.901C2.78937 31.9673 2.61542 32.001 2.43994 32Z" fill="#EAECED"/>
</g>
<defs>
<clipPath id="clip0_59_75">
<rect width="32" height="32" fill="white"/>
</clipPath>
</defs>
</svg>
